<svg xmlns="http://www.w3.org/2000/svg" xmlns:xlink="http://www.w3.org/1999/xlink" width="533.4" height="582.951" viewBox="0 0 533.4 582.951">
  <defs>
    <filter id="Sail_Away" x="0" y="108.951" width="425" height="474" filterUnits="userSpaceOnUse">
      <feOffset dy="6" input="SourceAlpha"/>
      <feGaussianBlur stdDeviation="3" result="blur"/>
      <feFlood flood-opacity="0.271"/>
      <feComposite operator="in" in2="blur"/>
      <feComposite in="SourceGraphic"/>
    </filter>
    <filter id="Path_1" x="404.999" y="0" width="117.101" height="248.439" filterUnits="userSpaceOnUse">
      <feOffset dy="6" input="SourceAlpha"/>
      <feGaussianBlur stdDeviation="3" result="blur-2"/>
      <feFlood flood-color="#302618" flood-opacity="0.369"/>
      <feComposite operator="in" in2="blur-2"/>
      <feComposite in="SourceGraphic"/>
    </filter>
    <filter id="Path_4" x="296.365" y="241.319" width="237.035" height="55.12" filterUnits="userSpaceOnUse">
      <feOffset dy="6" input="SourceAlpha"/>
      <feGaussianBlur stdDeviation="3" result="blur-3"/>
      <feFlood flood-opacity="0.239"/>
      <feComposite operator="in" in2="blur-3"/>
      <feComposite in="SourceGraphic"/>
    </filter>
  </defs>
  <g id="nazwa" transform="translate(10 3.007)" style="isolation: isolate">
    <g transform="matrix(1, 0, 0, 1, -10, -3.01)" filter="url(#Sail_Away)">
      <text id="Sail_Away-2" data-name="Sail
Away" transform="translate(10 282.95)" fill="rgba(239,249,255,0.9)" stroke="rgba(198,210,220,0)" stroke-width="1" font-size="200" font-family="Centaur"><tspan x="0" y="0">Sail</tspan><tspan x="0" y="228">Away</tspan></text>
    </g>
    <g transform="matrix(1, 0, 0, 1, -10, -3.01)" filter="url(#Path_1)" style="mix-blend-mode: difference;isolation: isolate">
      <path id="Path_1-2" data-name="Path 1" d="M520,302c-1.535,229.432,98.083,229.432,98.083,229.432H520Z" transform="translate(-104.98 -298.99)" fill="rgba(220,209,136,0.77)" stroke="rgba(48,38,24,0.02)" stroke-width="2"/>
    </g>
    <g transform="matrix(1, 0, 0, 1, -10, -3.01)" filter="url(#Path_4)">
      <path id="Path_4-2" data-name="Path 4" d="M1000.849,576.06H1216.9l-1.521,4.69-2.789,4.13-2.282,2.826-2.789,3.043-2.282,3.043-4.31,4.564-5.324,4.564-3.55,2.608-6.845,3.043-9.009,2.608H1036.761l-7.661-3.9-5.65-3.27-4.057-3.26-3.042-2.391-1.775-2.174-2.028-2.391-2.535-3.043-2.789-3.043-1.775-2.826-2.282-4.13Z" transform="translate(-693.87 -330.74)" fill="rgba(220,209,136,0.76)" stroke="rgba(48,38,24,0)" stroke-width="2"/>
    </g>
  </g>
</svg>
